<svg width="48" height="48" viewBox="0 0 48 48" fill="none" xmlns="http://www.w3.org/2000/svg">
<path d="M41.3333 41.3333V27.2C41.3333 24.8944 40.4174 22.6832 38.7871 21.0529C37.1568 19.4226 34.9456 18.5067 32.64 18.5067C30.3733 18.5067 27.7333 19.8933 26.4533 21.9733V19.0133H19.0133V41.3333H26.4533V28.1867C26.4533 26.1333 28.1067 24.4533 30.16 24.4533C31.1501 24.4533 32.0997 24.8467 32.7999 25.5468C33.5 26.2469 33.8933 27.1965 33.8933 28.1867V41.3333H41.3333Z" fill="#728AB7"/>
<path d="M14.0533 41.3333V19.0133H6.66667V41.3333H14.0533Z" fill="#728AB7"/>
<path d="M10.3467 14.8267C11.5348 14.8267 12.6743 14.3547 13.5145 13.5145C14.3547 12.6743 14.8267 11.5348 14.8267 10.3467C14.8267 7.86667 12.8267 5.84 10.3467 5.84C9.15142 5.84 8.00514 6.31481 7.15997 7.15997C6.31481 8.00514 5.84 9.15142 5.84 10.3467C5.84 12.8267 7.86667 14.8267 10.3467 14.8267Z" fill="#728AB7"/>
</svg>
