<svg width="50" height="48" viewBox="0 0 50 48" fill="none" xmlns="http://www.w3.org/2000/svg">
<g clip-path="url(#clip0)">
<path d="M24.6438 0C31.4515 0 37.2592 2.40385 42.0669 7.21154C46.8746 12.0192 49.2784 17.8077 49.2784 24.5769C49.2784 29.9615 47.7015 34.7885 44.5477 39.0577C41.3938 43.3269 37.3554 46.3077 32.4323 48C31.3554 48.1538 30.8169 47.7308 30.8169 46.7308V40.0385C30.8169 37.9615 30.24 36.4231 29.0861 35.4231C32.4708 35.0385 35.1823 34 37.2208 32.3077C39.2592 30.6154 40.2784 27.6538 40.2784 23.4231C40.2784 20.8077 39.4323 18.5769 37.74 16.7308C38.5861 14.7308 38.5092 12.5385 37.5092 10.1538C36.1246 9.76923 33.8938 10.6154 30.8169 12.6923C28.8169 12.1538 26.74 11.8846 24.5861 11.8846C22.4323 11.8846 20.3938 12.1538 18.4708 12.6923C17.0861 11.7692 15.8361 11.0962 14.7208 10.6731C13.6054 10.25 12.8169 10.0769 12.3554 10.1538H11.6631C10.74 12.5385 10.6631 14.7308 11.4323 16.7308C9.73999 18.5769 8.89383 20.8077 8.89383 23.4231C8.89383 27.6538 9.93229 30.6154 12.0092 32.3077C14.0861 34 16.7784 35.0385 20.0861 35.4231C19.24 36.1923 18.74 37.3077 18.5861 38.7692C15.3554 40.1538 12.9708 39.4615 11.4323 36.6923C10.5092 35.1538 9.23999 34.3077 7.6246 34.1538C7.47075 34.1538 7.29768 34.1731 7.10537 34.2115C6.91306 34.25 6.72075 34.3846 6.52845 34.6154C6.33614 34.8462 6.66306 35.1923 7.50922 35.6538C8.58614 36.1923 9.47075 37.3846 10.1631 39.2308C10.24 39.3846 10.3169 39.5577 10.3938 39.75C10.4708 39.9423 10.7208 40.3077 11.1438 40.8462C11.5669 41.3846 12.0669 41.7885 12.6438 42.0577C13.2208 42.3269 14.0092 42.5769 15.0092 42.8077C16.0092 43.0385 17.1631 42.9615 18.4708 42.5769V46.7308C18.4708 47.7308 17.9323 48.1538 16.8554 48C11.9323 46.3077 7.89383 43.3269 4.73999 39.0577C1.58614 34.7885 0.00921631 29.9615 0.00921631 24.5769C0.00921631 17.8077 2.41306 12.0192 7.22075 7.21154C12.0284 2.40385 17.8361 0 24.6438 0Z" fill="#728AB7"/>
</g>
<defs>
<clipPath id="clip0">
<rect width="49.8646" height="48" fill="white"/>
</clipPath>
</defs>
</svg>
